<svg width="1046" height="1061" viewBox="0 0 1046 1061" fill="none" xmlns="http://www.w3.org/2000/svg">
<rect x="956.155" y="82.9084" width="603.485" height="603.485" transform="rotate(90 956.155 82.9084)" stroke="#4132CE" stroke-width="2"/>
<rect x="695.797" y="355.377" width="603.485" height="603.485" transform="rotate(90 695.797 355.377)" stroke="#37BBA5" stroke-width="2"/>
<rect x="1044.16" y="455.985" width="603.485" height="603.485" transform="rotate(90 1044.16 455.985)" stroke="#F0B92D" stroke-width="2"/>
<rect x="604.485" y="1" width="603.485" height="603.485" transform="rotate(90 604.485 1)" stroke="#E6644D" stroke-width="2"/>
<rect x="835.058" y="240.334" width="603.485" height="603.485" transform="rotate(90 835.058 240.334)" stroke="#992A34" stroke-width="2"/>
<rect x="231" y="239" width="605" height="606" fill="white"/>
<path d="M352.643 539.946C352.643 546.613 351.589 552.679 349.48 558.145C347.372 563.612 344.395 568.291 340.55 572.183C336.706 576.076 332.075 579.099 326.66 581.252C321.285 583.364 315.332 584.42 308.8 584.42H275.623V495.409H308.8C315.332 495.409 321.285 496.486 326.66 498.639C332.075 500.751 336.706 503.774 340.55 507.708C344.395 511.601 347.372 516.28 349.48 521.746C351.589 527.212 352.643 533.279 352.643 539.946ZM340.302 539.946C340.302 534.48 339.558 529.593 338.07 525.287C336.582 520.98 334.473 517.336 331.745 514.354C329.016 511.373 325.709 509.095 321.823 507.522C317.936 505.948 313.596 505.161 308.8 505.161H287.654V574.668H308.8C313.596 574.668 317.936 573.881 321.823 572.308C325.709 570.734 329.016 568.477 331.745 565.537C334.473 562.556 336.582 558.912 338.07 554.605C339.558 550.298 340.302 545.412 340.302 539.946Z" fill="#1A1A1A"/>
<path d="M424.793 574.606L424.731 584.42H369.974V495.409H424.731V505.223H382.005V534.79H416.608V544.232H382.005V574.606H424.793Z" fill="#1A1A1A"/>
<path d="M513.8 495.409L477.584 584.42H466.794L430.579 495.409H440.191C441.266 495.409 442.134 495.678 442.795 496.217C443.457 496.755 443.953 497.438 444.284 498.267L469.337 561.065C469.874 562.473 470.391 564.005 470.887 565.661C471.425 567.318 471.9 569.057 472.313 570.879C472.727 569.057 473.161 567.318 473.616 565.661C474.07 564.005 474.566 562.473 475.104 561.065L500.095 498.267C500.343 497.563 500.818 496.921 501.521 496.341C502.265 495.72 503.154 495.409 504.188 495.409H513.8Z" fill="#1A1A1A"/>
<path d="M347.62 604.489V693.5H335.589V653.001H287.654V693.5H275.623V604.489H287.654V644.181H335.589V604.489H347.62Z" fill="#1A1A1A"/>
<path d="M417.529 660.455L403.576 624.242C403.163 623.165 402.729 621.923 402.274 620.515C401.819 619.066 401.385 617.533 400.972 615.918C400.104 619.273 399.215 622.068 398.305 624.304L384.353 660.455H417.529ZM442.582 693.5H433.28C432.205 693.5 431.337 693.231 430.676 692.693C430.014 692.154 429.518 691.471 429.188 690.643L420.878 669.151H381.004L372.694 690.643C372.446 691.388 371.971 692.051 371.268 692.631C370.565 693.21 369.697 693.5 368.663 693.5H359.361L394.895 604.489H407.049L442.582 693.5Z" fill="#1A1A1A"/>
<path d="M486.506 683.934C490.186 683.934 493.473 683.313 496.366 682.071C499.26 680.829 501.7 679.089 503.684 676.853C505.71 674.617 507.239 671.946 508.273 668.84C509.348 665.735 509.885 662.318 509.885 658.591V604.489H521.854V658.591C521.854 663.726 521.027 668.488 519.373 672.878C517.761 677.267 515.425 681.077 512.366 684.307C509.348 687.496 505.648 690.001 501.265 691.823C496.883 693.645 491.964 694.556 486.506 694.556C481.049 694.556 476.13 693.645 471.747 691.823C467.365 690.001 463.645 687.496 460.585 684.307C457.526 681.077 455.169 677.267 453.516 672.878C451.903 668.488 451.097 663.726 451.097 658.591V604.489H463.066V658.529C463.066 662.256 463.583 665.673 464.616 668.778C465.691 671.884 467.221 674.555 469.205 676.791C471.231 679.027 473.691 680.787 476.584 682.071C479.52 683.313 482.827 683.934 486.506 683.934Z" fill="#1A1A1A"/>
<path d="M588.871 618.403C588.499 619.024 588.085 619.5 587.63 619.832C587.217 620.122 586.7 620.267 586.08 620.267C585.377 620.267 584.55 619.915 583.6 619.211C582.649 618.507 581.45 617.741 580.003 616.912C578.597 616.043 576.882 615.256 574.856 614.552C572.871 613.848 570.453 613.496 567.6 613.496C564.913 613.496 562.536 613.869 560.469 614.614C558.443 615.318 556.728 616.291 555.322 617.533C553.958 618.776 552.924 620.246 552.221 621.944C551.519 623.6 551.167 625.401 551.167 627.348C551.167 629.832 551.767 631.903 552.965 633.559C554.206 635.174 555.818 636.561 557.802 637.721C559.828 638.88 562.102 639.895 564.624 640.764C567.187 641.593 569.792 642.462 572.437 643.373C575.125 644.284 577.729 645.32 580.251 646.479C582.814 647.597 585.088 649.026 587.072 650.765C589.098 652.504 590.71 654.637 591.909 657.163C593.15 659.689 593.77 662.795 593.77 666.48C593.77 670.373 593.108 674.037 591.785 677.474C590.462 680.87 588.519 683.831 585.956 686.357C583.434 688.883 580.313 690.871 576.592 692.32C572.913 693.769 568.717 694.494 564.004 694.494C558.216 694.494 552.965 693.459 548.253 691.388C543.54 689.276 539.509 686.44 536.16 682.878L539.633 677.164C539.964 676.708 540.356 676.336 540.811 676.046C541.307 675.715 541.845 675.549 542.423 675.549C542.961 675.549 543.56 675.777 544.222 676.232C544.924 676.646 545.71 677.185 546.578 677.847C547.446 678.51 548.439 679.234 549.555 680.021C550.671 680.808 551.932 681.533 553.338 682.195C554.784 682.858 556.417 683.417 558.237 683.872C560.056 684.286 562.102 684.493 564.376 684.493C567.228 684.493 569.771 684.1 572.003 683.313C574.236 682.526 576.117 681.429 577.646 680.021C579.217 678.572 580.416 676.853 581.243 674.866C582.07 672.878 582.483 670.663 582.483 668.219C582.483 665.528 581.863 663.333 580.623 661.635C579.424 659.896 577.832 658.447 575.848 657.287C573.864 656.128 571.59 655.154 569.027 654.368C566.464 653.539 563.859 652.711 561.213 651.883C558.567 651.013 555.963 650.02 553.4 648.902C550.836 647.783 548.563 646.334 546.578 644.553C544.594 642.773 542.981 640.557 541.741 637.907C540.542 635.216 539.943 631.903 539.943 627.969C539.943 624.822 540.542 621.778 541.741 618.838C542.981 615.898 544.759 613.289 547.074 611.011C549.431 608.734 552.304 606.912 555.694 605.545C559.125 604.179 563.053 603.495 567.476 603.495C572.437 603.495 576.944 604.282 580.995 605.856C585.088 607.429 588.685 609.707 591.785 612.689L588.871 618.403Z" fill="#1A1A1A"/>
<path d="M326.039 792.455V802.58H275.623V713.569H287.592V792.455H326.039Z" fill="#1A1A1A"/>
<path d="M394.15 792.766L394.088 802.58H339.331V713.569H394.088V723.383H351.362V752.95H385.965V762.392H351.362V792.766H394.15Z" fill="#1A1A1A"/>
<path d="M422.943 802.58H410.912V713.569H422.943V802.58Z" fill="#1A1A1A"/>
<path d="M471.904 759.721C475.336 759.721 478.354 759.265 480.958 758.354C483.604 757.443 485.816 756.18 487.594 754.565C489.413 752.909 490.777 750.942 491.686 748.664C492.596 746.387 493.051 743.881 493.051 741.148C493.051 735.475 491.294 731.044 487.78 727.856C484.307 724.667 479.015 723.073 471.904 723.073H457.642V759.721H471.904ZM471.904 713.569C477.527 713.569 482.405 714.232 486.539 715.557C490.715 716.841 494.167 718.683 496.896 721.085C499.624 723.487 501.65 726.386 502.973 729.781C504.337 733.177 505.019 736.966 505.019 741.148C505.019 745.289 504.296 749.078 502.849 752.515C501.402 755.952 499.273 758.913 496.461 761.398C493.692 763.882 490.24 765.829 486.105 767.237C482.013 768.603 477.279 769.286 471.904 769.286H457.642V802.58H445.673V713.569H471.904Z" fill="#1A1A1A"/>
<path d="M579.445 718.042C579.445 719.408 579.031 720.733 578.205 722.017L527.912 792.766H578.701V802.58H512.099V797.859C512.099 797.197 512.203 796.576 512.409 795.996C512.657 795.416 512.947 794.857 513.277 794.319L563.694 723.383H514.456V713.569H579.445V718.042Z" fill="#1A1A1A"/>
<path d="M606.8 802.58H594.77V713.569H606.8V802.58Z" fill="#1A1A1A"/>
<path d="M701.713 759.783V793.946C697.248 797.176 692.473 799.599 687.388 801.214C682.345 802.787 676.805 803.574 670.769 803.574C663.617 803.574 657.168 802.477 651.421 800.282C645.675 798.046 640.755 794.94 636.662 790.965C632.611 786.948 629.489 782.144 627.298 776.554C625.107 770.964 624.011 764.814 624.011 758.106C624.011 751.315 625.066 745.124 627.174 739.533C629.324 733.943 632.362 729.16 636.29 725.185C640.217 721.168 644.992 718.062 650.615 715.868C656.237 713.673 662.521 712.575 669.467 712.575C672.981 712.575 676.247 712.845 679.265 713.383C682.283 713.88 685.073 714.625 687.636 715.619C690.199 716.572 692.577 717.752 694.768 719.16C696.959 720.526 699.005 722.079 700.907 723.818L697.496 729.284C696.959 730.113 696.256 730.651 695.388 730.899C694.561 731.106 693.631 730.899 692.597 730.278C691.605 729.698 690.468 728.995 689.187 728.166C687.905 727.338 686.334 726.551 684.474 725.806C682.655 725.019 680.484 724.357 677.962 723.818C675.482 723.28 672.526 723.011 669.095 723.011C664.092 723.011 659.565 723.839 655.514 725.495C651.462 727.11 648.01 729.45 645.158 732.514C642.305 735.537 640.114 739.223 638.584 743.571C637.055 747.878 636.29 752.722 636.29 758.106C636.29 763.696 637.075 768.707 638.646 773.138C640.259 777.527 642.533 781.275 645.468 784.38C648.444 787.445 652.041 789.784 656.258 791.399C660.475 793.014 665.208 793.822 670.459 793.822C674.593 793.822 678.252 793.366 681.435 792.455C684.66 791.503 687.802 790.199 690.861 788.542V768.976H677.032C676.247 768.976 675.606 768.748 675.11 768.293C674.655 767.837 674.428 767.278 674.428 766.616V759.783H701.713Z" fill="#1A1A1A"/>
<path fill-rule="evenodd" clip-rule="evenodd" d="M823.9 251.12H243.1V832.88H823.9V251.12ZM231 239V845H836V239H231Z" fill="#1A1A1A"/>
</svg>