<svg width="250" height="250" viewBox="0 0 250 250" fill="none" xmlns="http://www.w3.org/2000/svg">
<rect x="7.5" y="7.5" width="235" height="235" stroke="white" stroke-width="5"/>
<path d="M13.485 118V88.89H23.571C25.8943 88.89 27.9307 89.2727 29.68 90.038C31.4567 90.8033 32.9327 91.842 34.108 93.154C35.2833 94.466 36.158 96.0103 36.732 97.787C37.3333 99.5363 37.634 101.409 37.634 103.404C37.634 105.618 37.306 107.627 36.65 109.431C35.994 111.208 35.051 112.738 33.821 114.023C32.591 115.28 31.1013 116.264 29.352 116.975C27.63 117.658 25.703 118 23.571 118H13.485ZM33.903 103.404C33.903 101.764 33.6707 100.261 33.206 98.894C32.7687 97.5 32.099 96.311 31.197 95.327C30.3223 94.343 29.2427 93.5777 27.958 93.031C26.6733 92.457 25.211 92.17 23.571 92.17H17.175V114.72H23.571C25.2383 114.72 26.7143 114.433 27.999 113.859C29.311 113.285 30.3907 112.492 31.238 111.481C32.1127 110.47 32.7687 109.281 33.206 107.914C33.6707 106.52 33.903 105.017 33.903 103.404ZM62.5956 114.72V118H42.8336V88.89H62.2266V92.17H46.5236V101.6H60.1766V104.675H46.5236V114.72H62.5956ZM68.4779 88.89L78.1129 113.367L87.7069 88.89H91.6019L79.7119 118H76.5139L64.5829 88.89H68.4779ZM36.896 124.89V154H33.206V140.757H17.175V154H13.485V124.89H17.175V137.477H33.206V124.89H36.896ZM52.7306 124.89H55.8466L67.7367 154H63.8007L60.3566 145.472H48.1386L44.7356 154H40.7996L52.7306 124.89ZM59.5366 142.602L54.2886 129.154L48.8766 142.602H59.5366ZM82.3925 150.884C84.0872 150.884 85.4949 150.556 86.6155 149.9C87.7362 149.244 88.6245 148.397 89.2805 147.358C89.9639 146.292 90.4422 145.089 90.7155 143.75C90.9889 142.383 91.1255 141.003 91.1255 139.609V124.89H94.8155V139.609C94.8155 141.577 94.5832 143.449 94.1185 145.226C93.6812 146.975 92.9705 148.52 91.9865 149.859C91.0025 151.198 89.7179 152.264 88.1325 153.057C86.5745 153.822 84.6749 154.205 82.4335 154.205C80.1102 154.205 78.1559 153.795 76.5705 152.975C74.9852 152.155 73.7005 151.075 72.7165 149.736C71.7599 148.369 71.0629 146.811 70.6255 145.062C70.2155 143.285 70.0105 141.468 70.0105 139.609V124.89H73.7005V139.609C73.7005 141.058 73.8372 142.465 74.1105 143.832C74.4112 145.171 74.8895 146.36 75.5455 147.399C76.2289 148.438 77.1172 149.285 78.2105 149.941C79.3312 150.57 80.7252 150.884 82.3925 150.884ZM118.468 130.999C118.14 130.616 117.702 130.247 117.156 129.892C116.609 129.537 115.994 129.222 115.311 128.949C114.627 128.648 113.876 128.416 113.056 128.252C112.263 128.061 111.429 127.965 110.555 127.965C108.286 127.965 106.619 128.389 105.553 129.236C104.514 130.083 103.995 131.245 103.995 132.721C103.995 133.514 104.145 134.17 104.446 134.689C104.746 135.208 105.211 135.659 105.84 136.042C106.496 136.397 107.302 136.712 108.259 136.985C109.215 137.258 110.35 137.545 111.662 137.846C113.165 138.174 114.518 138.557 115.721 138.994C116.951 139.404 117.989 139.923 118.837 140.552C119.711 141.181 120.367 141.946 120.805 142.848C121.269 143.75 121.502 144.857 121.502 146.169C121.502 147.563 121.228 148.779 120.682 149.818C120.135 150.829 119.383 151.677 118.427 152.36C117.497 153.016 116.39 153.508 115.106 153.836C113.821 154.137 112.427 154.287 110.924 154.287C108.682 154.287 106.55 153.945 104.528 153.262C102.532 152.551 100.715 151.526 99.0747 150.187L100.838 147.071C101.275 147.536 101.835 148 102.519 148.465C103.229 148.93 104.022 149.353 104.897 149.736C105.799 150.091 106.755 150.392 107.767 150.638C108.805 150.857 109.885 150.966 111.006 150.966C113.083 150.966 114.696 150.597 115.844 149.859C116.992 149.121 117.566 148.014 117.566 146.538C117.566 145.718 117.374 145.035 116.992 144.488C116.636 143.914 116.103 143.422 115.393 143.012C114.682 142.602 113.794 142.247 112.728 141.946C111.689 141.618 110.5 141.29 109.161 140.962C107.685 140.607 106.386 140.224 105.266 139.814C104.145 139.404 103.202 138.912 102.437 138.338C101.699 137.764 101.138 137.067 100.756 136.247C100.373 135.427 100.182 134.443 100.182 133.295C100.182 131.901 100.441 130.671 100.961 129.605C101.48 128.539 102.204 127.637 103.134 126.899C104.063 126.161 105.17 125.614 106.455 125.259C107.739 124.876 109.133 124.685 110.637 124.685C112.605 124.685 114.381 124.986 115.967 125.587C117.552 126.188 118.96 126.995 120.19 128.006L118.468 130.999ZM13.485 190V160.89H17.175V186.72H33.411V190H13.485ZM57.1904 186.72V190H37.4284V160.89H56.8214V164.17H41.1184V173.6H54.7714V176.675H41.1184V186.72H57.1904ZM62.2526 190V160.89H65.9426V190H62.2526ZM72.903 190V160.89H85.039C86.3236 160.89 87.499 161.163 88.565 161.71C89.6583 162.229 90.5876 162.94 91.353 163.842C92.1456 164.717 92.7606 165.714 93.198 166.835C93.6353 167.928 93.854 169.049 93.854 170.197C93.854 171.4 93.649 172.561 93.239 173.682C92.829 174.803 92.2413 175.8 91.476 176.675C90.738 177.55 89.836 178.247 88.77 178.766C87.7313 179.285 86.5696 179.545 85.285 179.545H76.593V190H72.903ZM76.593 176.265H85.08C85.8453 176.265 86.5286 176.115 87.13 175.814C87.7586 175.486 88.2916 175.049 88.729 174.502C89.1663 173.928 89.508 173.272 89.754 172.534C90 171.796 90.123 171.017 90.123 170.197C90.123 169.35 89.9726 168.557 89.672 167.819C89.3986 167.081 89.016 166.439 88.524 165.892C88.0593 165.345 87.499 164.922 86.843 164.621C86.2143 164.32 85.5446 164.17 84.834 164.17H76.593V176.265ZM96.2749 187.13L115.053 164.17H96.6439V160.89H119.358V163.76L100.908 186.72H119.358V190H96.2749V187.13ZM124.313 190V160.89H128.003V190H124.313ZM155.505 186.064C152.935 188.825 149.983 190.205 146.649 190.205C144.708 190.205 142.904 189.781 141.237 188.934C139.597 188.087 138.175 186.98 136.973 185.613C135.77 184.219 134.813 182.634 134.103 180.857C133.419 179.08 133.078 177.249 133.078 175.363C133.078 173.395 133.419 171.536 134.103 169.787C134.786 168.01 135.729 166.452 136.932 165.113C138.134 163.746 139.569 162.667 141.237 161.874C142.904 161.081 144.708 160.685 146.649 160.685C149.464 160.685 151.774 161.273 153.578 162.448C155.409 163.623 156.803 165.154 157.76 167.04L154.931 169.008C154.056 167.313 152.894 166.056 151.446 165.236C149.997 164.416 148.371 164.006 146.567 164.006C145.091 164.006 143.751 164.334 142.549 164.99C141.346 165.619 140.321 166.466 139.474 167.532C138.626 168.571 137.97 169.787 137.506 171.181C137.041 172.548 136.809 173.969 136.809 175.445C136.809 177.003 137.068 178.479 137.588 179.873C138.107 181.24 138.818 182.456 139.72 183.522C140.622 184.561 141.688 185.381 142.918 185.982C144.148 186.583 145.487 186.884 146.936 186.884C150.106 186.884 152.963 185.353 155.505 182.292V178.274H149.232V175.486H158.621V190H155.505V186.064Z" fill="white"/>
</svg>
