<svg xmlns="http://www.w3.org/2000/svg" viewBox="0 0 6097.96 1598.75"><defs><style>.cls-1{fill:#ffc8c8;}.cls-2{fill:#81c3d9;}.cls-3{fill:#90d4e8;}.cls-4{opacity:0.42;}.cls-5{fill:#fe7e7a;}.cls-6{fill:#ff9e9e;}.cls-7{fill:#a2e8f7;}.cls-8{fill:#b9f6fa;}.cls-9{font-size:300px;fill:#ff8c8c;font-family:Futura-Medium, Futura;}.cls-10{letter-spacing:0em;}.cls-11{letter-spacing:0.02em;}</style></defs><title>Code-Camp-Leipzig-Logo</title><g id="Ebene_5" data-name="Ebene 5"><path class="cls-1" d="M1576.07,669.23c70.73-1.4,190.33-108.06,187.07-210.5-5.5-172.5-74.83-218-137.5-278.5-62.18-60,16.5-129,16.5-129s-121.07,44-121.07,118c0,91.46,107.23,94.67,97.57,221C1609.21,513.48,1434.77,672,1576.07,669.23Z" transform="translate(1456.5 -51.23)"/><text x="1456.5" y="-51.23"></text></g><g id="Ebene_2" data-name="Ebene 2"><path class="cls-2" d="M1452.24,747.31c-15.8-10.3-20.71-25.69-13.27-44.08,5.67-14,33.33-25.33,47.67-39.66,10.35-10.36,38.33-34,42.33-62.67,6.65-47.66-9.52-51.12-17.33-52.17-3.46-.46-19.17,28.33-39.67,48.84-34,34-91.67,71.1-112.73,97.24-20.57,25.54-30.85,38.31-37.5,57-14.4,40.53-10.26,100.29,21,127.5" transform="translate(1456.5 -51.23)"/><path class="cls-3" d="M1443.33,676c-65.36,6.2-94.23,38.44-121,89.85-18.5,35.5-1.56,97.43,20.44,113.43,24.61,17.9,99.61,43.91,202.36-41.31,34.94-29,137.3-91.78,187.25-118.28,38.62-20.49,48.82-24.12,106-37.5,18.45-4.32,47.69-5,48.17-10.5.33-3.81-4.15-8.82-11.43-13.84-14.76-10.18-41-20.39-62.24-20.66-58.48-.74-87.8,46.81-159.21,62.68C1599.64,711.9,1501.46,670.51,1443.33,676Z" transform="translate(1456.5 -51.23)"/></g><g id="Ebene_3" data-name="Ebene 3"><g id="Ebene_4" data-name="Ebene 4" class="cls-4"><g id="Ebene_7" data-name="Ebene 7"><circle class="cls-5" cx="3032.64" cy="438" r="187"/></g></g><path class="cls-6" d="M1469.14,184.57s30.56,50.78,2.1,104c-25.27,47.29-84.1,97.69-82.1,198.12,3.5,176,166.85,190.82,191.53,191.5s178.24-26.37,182.47-192.33c2.65-104-70.34-109.17-123.84-40.67-69.56,89.07-119.85,88-144.66,38.67-24.23-48.17,13.25-122.33,24.81-168.92C1536.14,247.73,1469.14,184.57,1469.14,184.57Z" transform="translate(1456.5 -51.23)"/><path class="cls-7" d="M1742.64,607.4c-9.19,8.12-11.66,9.73-26.5,30.5-20.91,29.25-34.35,52.39-39.5,62-7,13-20.21,63.43-60,87.83-44.43,27.25-106.06,86.5-156,101.61-74,22.39-112.86-6.71-112.86-6.71s-2.77-110.48,57.36-144.4c89.83-50.66,111.14,8.46,152.83-2.33,27.28-7.06,45.74-27.24,62.67-49.17,16.33-21.16,9.33-21.55,38-56.33,12.12-14.71,26.25-29.61,47-42.5,12.94-8,42.63-26.5,63.55-15.66,1.37.71,10.08,5.26,10,11.16C1779,591.84,1759.8,592.23,1742.64,607.4Z" transform="translate(1456.5 -51.23)"/><path class="cls-8" d="M1467.89,764.73c39.83-30.68,68.49-24.08,90.75-54,19.3-25.93,15.37-56,40-92,21.68-31.72,44.75-51,57.66-55.19,4.85-1.57,14-1.81,13.34,3.44-1.2,9.79-18.28,24-35.75,80.75-24,78-17.66,95.12-42.64,139.06-60,105.44-174.55,110.4-174.55,110.4S1435.23,789.89,1467.89,764.73Z" transform="translate(1456.5 -51.23)"/><path d="M2287.83,615.23" transform="translate(1456.5 -51.23)"/></g><g id="Ebene_9" data-name="Ebene 9"><text class="cls-9" transform="translate(1520.9 1159.27)"><tspan class="cls-10">C</tspan><tspan x="208.74" y="0">ODE </tspan><tspan class="cls-11" x="956.84" y="0">C</tspan><tspan x="1172.46" y="0">AMP LEIPZIG</tspan></text><text x="1456.5" y="-51.23"></text><text x="1456.5" y="-51.23"></text><text x="1456.5" y="-51.23"></text></g></svg>